<?xml version="1.0" standalone="no"?><!DOCTYPE svg PUBLIC "-//W3C//DTD SVG 1.1//EN" "http://www.w3.org/Graphics/SVG/1.1/DTD/svg11.dtd"><svg t="1760664084292" class="icon" viewBox="0 0 1024 1024" version="1.1" xmlns="http://www.w3.org/2000/svg" p-id="3208" xmlns:xlink="http://www.w3.org/1999/xlink" width="200" height="200"><path d="M512 512m-435.2 0a435.2 435.2 0 1 0 870.4 0 435.2 435.2 0 1 0-870.4 0Z" fill="#2C68FF" opacity=".1" p-id="3209"></path><path d="M512 102.4m-102.4 0a102.4 102.4 0 1 0 204.8 0 102.4 102.4 0 1 0-204.8 0Z" fill="#2C68FF" opacity=".4" p-id="3210"></path><path d="M204.8 204.8m-51.2 0a51.2 51.2 0 1 0 102.4 0 51.2 51.2 0 1 0-102.4 0Z" fill="#2C68FF" p-id="3211"></path><path d="M819.2 204.8m-51.2 0a51.2 51.2 0 1 0 102.4 0 51.2 51.2 0 1 0-102.4 0Z" fill="#2C68FF" p-id="3212"></path><path d="M204.8 819.2m-51.2 0a51.2 51.2 0 1 0 102.4 0 51.2 51.2 0 1 0-102.4 0Z" fill="#2C68FF" p-id="3213"></path><path d="M819.2 819.2m-51.2 0a51.2 51.2 0 1 0 102.4 0 51.2 51.2 0 1 0-102.4 0Z" fill="#2C68FF" p-id="3214"></path><path d="M512 921.6m-102.4 0a102.4 102.4 0 1 0 204.8 0 102.4 102.4 0 1 0-204.8 0Z" fill="#2C68FF" opacity=".4" p-id="3215"></path><path d="M512 512m-128 0a128 128 0 1 0 256 0 128 128 0 1 0-256 0Z" fill="#2C68FF" p-id="3216"></path><path d="M102.4 512m-102.4 0a102.4 102.4 0 1 0 204.8 0 102.4 102.4 0 1 0-204.8 0Z" fill="#2C68FF" opacity=".4" p-id="3217"></path><path d="M921.6 512m-102.4 0a102.4 102.4 0 1 0 204.8 0 102.4 102.4 0 1 0-204.8 0Z" fill="#2C68FF" opacity=".4" p-id="3218"></path></svg>